Coordinates
version=1
nRows=19
nColumns=36
inDegrees=yes

Units are S.I. units (second, meters, Newtons, ...)
If the header above contains a line with 'inDegrees', this indicates whether rotational values are in degrees (yes) or radians (no).

endheader
time	pelvis_tilt	pelvis_list	pelvis_rotation	pelvis_tx	pelvis_ty	pelvis_tz	hip_flexion_r	hip_adduction_r	hip_rotation_r	knee_angle_r	knee_angle_r_beta	ankle_angle_r	subtalar_angle_r	mtp_angle_r	hip_flexion_l	hip_adduction_l	hip_rotation_l	knee_angle_l	knee_angle_l_beta	ankle_angle_l	subtalar_angle_l	mtp_angle_l	lumbar_extension	lumbar_bending	lumbar_rotation	arm_flex_r	arm_add_r	arm_rot_r	elbow_flex_r	pro_sup_r	arm_flex_l	arm_add_l	arm_rot_l	elbow_flex_l	pro_sup_l
      1.73333330	     -6.84183825	      0.53479665	      9.14018074	      0.02107190	      1.22476566	      0.10226399	      9.16634081	     -3.05411841	     -1.72746996	      5.19344214	      0.09064266	      9.83827627	     -5.03747284	     -7.49999987	      9.42455277	      3.26345267	    -14.20501974	      7.98322144	      0.13933350	     11.43465212	      4.35092242	     -7.49999987	     -4.78895076	     -4.20000675	     -3.16813568	     -5.97455728	     -7.88402718	      5.70690630	     19.86968663	     81.81979415	    -12.69289821	    -14.90386743	      4.49013226	     27.15908874	     76.22087796
      1.75000000	     -7.61424541	      0.55731490	      8.89167608	      0.02198316	      1.22287399	      0.10199185	     10.50365170	     -3.13889015	     -1.42763379	      5.88837292	      0.10277150	     10.30249567	     -5.15469482	     -7.49999987	     10.53441411	      3.26614890	    -14.06502113	      8.52030556	      0.14870739	     11.79896759	      4.10951877	     -7.49999987	     -4.69036847	     -4.58585906	     -4.86768513	     -7.06198687	     -9.19748407	      4.46507185	     22.88389325	     80.65680696	    -17.36423238	    -16.36260938	      4.03460910	     26.04123957	     75.33021031
      1.76666670	     -8.51661347	      0.48479106	      8.92083907	      0.02987480	      1.22247244	      0.10590711	     11.68929617	     -3.05666532	     -1.16698811	      6.28602026	      0.10971175	     10.51313768	     -5.54401453	     -7.49999987	     11.87734860	      3.12565858	    -13.88289949	      9.36853192	      0.16351173	     12.49651026	      4.06652673	     -7.49999987	     -4.85713183	     -4.94248232	     -5.09354821	    -11.52668478	     -8.89955409	     -8.53501353	     31.95699858	     90.31089333	    -21.61020941	    -18.01873853	      1.72787298	     25.41398704	     77.41792146
      1.78333330	     -9.78740148	      0.39186844	      8.95466211	      0.02409570	      1.21977209	      0.10871277	     13.35090984	     -3.03946035	     -1.07436563	      6.89588264	      0.12035586	     10.82496955	     -5.78641246	     -7.49999987	     13.74373090	      3.04124040	    -13.88032626	     10.18042534	      0.17768194	     12.95964557	      3.86195267	     -7.49999987	     -4.84852691	     -5.46823768	     -6.37035460	    -14.42356138	     -9.89945074	     -9.49122096	     39.51839130	     90.47489419	    -27.19930243	    -19.91743564	      1.59975255	     25.70672112	     77.07220855
      1.80000000	    -10.95281748	      0.25824643	      9.06826857	      0.02472778	      1.21230758	      0.10916526	     14.84539537	     -2.98738252	     -0.92591452	      7.52436583	      0.13132496	     11.10004759	     -6.36923855	     -7.49999987	     15.61674529	      2.89591801	    -13.90270814	     11.21369255	      0.19571586	     13.70099372	      3.77978658	     -7.49999987	     -5.33301732	     -5.69729804	     -6.77460056	    -19.14321912	    -10.06139156	    -12.99261058	     50.04069122	     91.24993514	    -32.25074601	    -21.98925802	      2.64708319	     25.51515343	     75.24353619
      1.81666670	    -12.53461559	      0.02799602	      9.17504035	      0.01862253	      1.20680542	      0.11180852	     17.18085748	     -2.91819117	     -0.80995087	      8.68404353	      0.15156515	     11.56266663	     -7.07629156	     -7.49999987	     18.04386286	      2.75641933	    -13.83268532	     12.32211912	      0.21506155	     14.41866434	      3.32477395	     -7.49999987	     -5.87052818	     -5.89112628	     -7.51376199	    -24.23865907	    -11.28837834	    -13.59572041	     62.35512555	     92.79193494	    -37.39264044	    -23.33702062	      2.56142244	     23.77395748	     74.74228084
      1.83333330	    -14.10003464	     -0.22822788	      9.23895486	      0.01932195	      1.19975923	      0.11221290	     19.67574744	     -2.83539501	     -0.64897138	     10.12462560	      0.17670805	     12.04507109	     -7.90393410	     -7.49999987	     20.39059739	      2.53998743	    -13.66377610	     13.53183019	      0.23617499	     15.14135680	      3.06215104	     -7.49999987	     -6.37199165	     -5.90426552	     -7.52182701	    -29.56383513	    -11.96967384	    -15.25277601	     74.09361322	     93.65134061	    -40.53450957	    -23.60829837	      1.20535490	     20.92140205	     73.09773987
      1.85000000	    -15.83158311	     -0.52884732	      9.38103321	      0.02021330	      1.19125109	      0.11171743	     22.40382138	     -2.83860656	     -0.65232517	     11.66224216	      0.20354452	     12.50427144	     -8.74782665	     -7.49999987	     22.86419536	      2.43533471	    -13.60537124	     14.51197755	      0.25328179	     15.88557351	      2.78791183	     -7.49999987	     -6.90673951	     -5.71996806	     -7.59191477	    -34.58095234	    -12.70267702	    -16.53700547	     83.98733813	     98.30704242	    -43.94540392	    -23.60459304	     -1.59730959	     20.25344572	     71.67277901
      1.86666670	    -17.48576298	     -0.80556621	      9.54562432	      0.02125874	      1.19063197	      0.11169048	     24.98507928	     -2.92152443	     -0.70622763	     13.21503518	      0.23064587	     13.01306216	     -9.59820772	     -7.49999987	     25.13045280	      2.30441033	    -13.40252485	     15.48695927	      0.27029843	     16.65674908	      2.64585909	     -7.49999987	     -7.54952354	     -5.84707700	     -7.62155150	    -37.79573981	    -13.33124258	    -16.49534490	     89.50732761	     98.44025703	    -46.05254604	    -23.35845272	     -2.51669364	     19.54935591	     71.32612550
      1.88333330	    -19.46964994	     -1.23698960	      9.80956109	      0.01513343	      1.18513010	      0.11415914	     27.91156270	     -2.93571036	     -0.63869828	     14.41854166	      0.25165103	     12.97823957	    -10.90476861	     -7.49999987	     27.89466699	      2.20754064	    -13.00877779	     16.23280398	      0.28331588	     17.07632901	      2.07834794	     -7.49999987	     -8.10495790	     -5.46446551	     -5.70491145	    -42.15359538	    -11.86358860	    -19.78301921	     94.22275753	     98.80129237	    -45.89162106	    -24.15798721	     -7.91235032	     19.25457983	     69.77355468
      1.90000000	    -21.15418689	     -1.64182285	     10.06147539	      0.01615589	      1.18127408	      0.11403504	     30.49542322	     -2.96516473	     -0.75543871	     15.75413512	      0.27496153	     13.13673303	    -11.68665685	     -7.49999987	     30.48571647	      2.09107024	    -12.56212399	     17.20844003	      0.30034394	     17.30582793	      1.56330590	     -7.49999987	     -8.61143457	     -5.58557550	     -5.62977934	    -45.97016894	    -11.74397777	    -20.93338213	     98.11192601	    100.82394794	    -47.67384657	    -22.74076254	    -18.10084495	     21.76195007	     70.80688582
      1.91666670	    -22.87705462	     -2.07826542	     10.21241146	      0.01691344	      1.17613944	      0.11341176	     33.26386592	     -2.95543028	     -0.87331968	     17.54130770	      0.30615357	     13.37459391	    -12.66748183	     -7.49999987	     33.15457507	      1.89731101	    -12.15748715	     18.57207242	      0.32414381	     17.57049321	      0.80917327	     -7.49999987	     -8.70237472	     -5.42339516	     -5.28023101	    -49.03224368	    -11.90595796	    -20.47746928	     99.31902379	     99.08194895	    -48.12282506	    -22.45712231	    -19.10434522	     23.22821157	     70.18599773
      1.93333330	    -24.43912916	     -2.64917233	      9.97046715	      0.01831068	      1.17509942	      0.11350565	     35.75387046	     -2.60411650	     -0.80203188	     19.10112462	      0.33337752	     13.47264749	    -13.54842139	     -7.49999987	     35.93870793	      1.40030266	    -11.55714211	     20.42218484	      0.35643437	     17.66907057	     -0.64611913	     -7.49999987	     -8.40327934	     -5.03256482	     -4.62807085	    -50.80342434	    -11.94429238	    -18.82910586	     97.14742688	     99.16105617	    -47.17443725	    -21.75336451	    -20.29229589	     22.88989912	     70.48599006
      1.95000000	    -25.81326747	     -3.11646358	      9.74565479	      0.01891051	      1.16983787	      0.11306429	     37.96687942	     -2.31945472	     -0.61666342	     20.41731970	      0.35634945	     13.61932548	    -14.25899252	     -7.49999987	     38.40312183	      1.03808663	    -10.96715516	     22.20304745	      0.38751628	     17.71730424	     -2.19993387	     -7.49999987	     -8.27971790	     -5.08886461	     -5.46578920	    -50.54642410	    -13.70289693	    -15.17672772	     93.82626935	     96.31174421	    -47.98847770	    -18.68457066	    -31.36744549	     25.21033251	     74.64148472
      1.96666670	    -26.79574954	     -3.58322711	      9.50172981	      0.02726663	      1.16993091	      0.11702052	     39.21591429	     -1.77686136	     -0.39984526	     21.10572992	      0.36836448	     13.30763524	    -15.20728605	     -7.49999987	     40.07051346	      0.47725102	    -10.37580453	     23.59783898	      0.41185999	     17.55374133	     -3.31516249	     -7.49999987	     -8.04416527	     -4.89039914	     -5.42403159	    -50.54176942	    -13.40417306	    -12.51871270	     89.59548637	     95.14593869	    -46.90889261	    -17.94756350	    -32.88618483	     24.09974245	     78.17225643
      1.98333330	    -27.98707399	     -4.00182819	      9.00674944	      0.02762995	      1.16166006	      0.11684025	     40.97064189	     -1.17588221	      0.02694934	     22.22894792	      0.38796833	     13.45991600	    -16.00969143	     -7.49999987	     42.27471227	     -0.12800625	     -9.94089350	     25.61033361	      0.44698464	     17.70003424	     -4.63718422	     -7.49999987	     -7.69769323	     -4.97547330	     -4.87437966	    -49.95395010	    -12.80918773	    -10.58481962	     84.61863778	     92.10488289	    -45.88817543	    -17.54103014	    -33.83984299	     24.24520045	     77.23045929
      2.00000000	    -29.21763351	     -4.42994283	      8.56863510	      0.02887038	      1.16119551	      0.11737575	     42.65456409	     -0.55644317	      0.50837796	     23.17902492	      0.40455030	     13.39162827	    -16.90544841	     -7.49999987	     44.65205766	     -0.65247406	     -9.07091327	     27.77795345	      0.48481675	     17.38606600	     -6.72296684	     -7.49999987	     -7.59158471	     -5.14199058	     -4.19839180	    -47.92422508	    -11.62289372	     -9.35373053	     78.30506969	     91.39134343	    -43.66293148	    -16.93601232	    -37.54070618	     23.77156042	     84.11904368
      2.01666670	    -30.24055958	     -4.77556200	      8.02708653	      0.02905275	      1.15919262	      0.11732916	     44.03206810	      0.04215331	      0.86171859	     23.92564045	      0.41758120	     13.20225242	    -17.64635051	     -7.49999987	     46.80308071	     -1.07766934	     -8.26733549	     29.93364131	      0.52244060	     16.84798401	     -9.08688882	     -7.49999987	     -7.31216782	     -5.16929217	     -4.20167735	    -45.00163664	    -11.39266851	     -6.85859590	     71.47254355	     90.23311993	    -41.54692219	    -16.24277998	    -37.58943611	     22.72839119	     82.91242064
      2.03333330	    -31.48049413	     -5.07249538	      7.53267188	      0.03000127	      1.15536529	      0.11804487	     45.78222164	      0.48297313	      1.07177145	     24.95980527	      0.43563078	     12.86831001	    -18.36105046	     -7.49999987	     48.98437928	     -1.33049561	     -7.57431702	     31.77468652	      0.55457290	     16.25502469	    -11.57387340	     -7.49999987	     -7.32039553	     -5.28021589	     -3.99740544	    -39.95549874	    -10.91149157	     -4.14810373	     63.00452949	     88.41808049	    -38.32926924	    -15.69078447	    -37.42803031	     21.93814975	     82.96317172
